<svg width="315.000000" height="65.000000" viewBox="0 0 315 65" fill="none" xmlns="http://www.w3.org/2000/svg" xmlns:xlink="http://www.w3.org/1999/xlink">
	<desc>
			Created with Pixso.
	</desc>
	<defs>
		<clipPath id="clip2_185">
			<rect id="Header logo" width="65.000000" height="65.000000" fill="white" fill-opacity="0"/>
		</clipPath>
	</defs>
	<rect id="Header logo" width="65.000000" height="65.000000" fill="#FFFFFF" fill-opacity="0"/>
	<g clip-path="url(#clip2_185)">
		<path id="Vector" d="M65 32.5C65 50.4493 50.4493 65 32.5 65C14.5507 65 0 50.4493 0 32.5C0 14.5507 14.5507 0 32.5 0C50.4493 0 65 14.5507 65 32.5Z" fill="#4793FF" fill-opacity="1.000000" fill-rule="evenodd"/>
		<path id="Vector" d="M65 32.5C65 29.8954 64.6917 27.3631 64.113 24.9358L54.3423 15.1651L53.0242 15.7211L48.3234 11.1622C48.3234 11.1622 46.5496 14.0707 44.5394 12.8753L41.3829 9.7971L41.1963 14.2822L8.78809 46.265L27.0688 64.5457C28.8351 64.8429 30.6492 65 32.5 65C50.4493 65 65 50.4493 65 32.5Z" fill="#424FDD" fill-opacity="1.000000" fill-rule="nonzero"/>
		<path id="Vector" d="M58.3388 29.0023L59.7103 28.1252L58.2388 27.1841C56.6467 26.1659 56.217 24.03 57.2916 22.4755L58.2847 21.0387L56.6808 20.7601C54.8077 20.4347 53.5845 18.6126 53.9927 16.7559L54.3422 15.1659L52.6363 15.5409C50.7905 15.9467 48.9765 14.7403 48.637 12.8812L48.3233 11.163L46.9922 12.1001C45.4377 13.1946 43.2843 12.7711 42.2601 11.1694L41.3829 9.79797L40.4418 11.2695C39.4236 12.8615 37.2878 13.2912 35.7333 12.2167L34.2964 11.2235L34.0179 12.8275C33.6925 14.7005 31.8705 15.9237 30.0137 15.5156L28.4237 15.1661L28.7987 16.8719C29.2045 18.7177 27.998 20.5317 26.1389 20.8712L24.4207 21.1849L25.3579 22.516C26.4523 24.0705 26.0289 26.2239 24.4272 27.2482L23.0557 28.1253L24.5271 29.0664C26.1192 30.0846 26.5488 32.2204 25.4743 33.775L24.4811 35.2118L26.0851 35.4904C27.9581 35.8157 29.1813 37.6379 28.7732 39.4946L28.4237 41.0845L30.1296 40.7095C31.9753 40.3038 33.7894 41.5102 34.1288 43.3693L34.4425 45.0876L35.7736 44.1505C37.3282 43.056 39.4816 43.4795 40.5058 45.0812L41.3829 46.4526L42.324 44.9811C43.3422 43.3891 45.478 42.9594 47.0326 44.0339L48.4695 45.0271L48.748 43.4231C49.0734 41.5501 50.8955 40.3269 52.7522 40.735L54.3422 41.0845L53.9672 39.3787C53.5614 37.5329 54.7678 35.7189 56.627 35.3794L58.3453 35.0657L57.4081 33.7346C56.3137 32.1801 56.7371 30.0265 58.3388 29.0023Z" fill="#FDBF2D" fill-opacity="1.000000" fill-rule="nonzero"/>
		<path id="Vector" d="M57.4082 33.734L58.3452 35.0644L56.6274 35.378C54.7676 35.7183 53.5615 37.5324 53.9678 39.3783L54.3423 41.0833L52.7529 40.7342C50.8955 40.3254 49.0737 41.5492 48.7475 43.4218L48.4695 45.0265L47.0323 44.0324C45.4785 42.9584 43.3418 43.3875 42.3237 44.9795L41.3829 46.4521L41.3829 9.79697L42.2602 11.1681C43.2847 12.7702 45.4378 13.1942 46.9917 12.0986L48.3235 11.1617L48.637 12.8807C48.976 14.7393 50.7902 15.9453 52.636 15.5403L54.3423 15.1645L53.9932 16.7553C53.5844 18.6113 54.8082 20.4344 56.6808 20.7594L58.2842 21.0374L57.2914 22.4745C56.2174 24.0297 56.6465 26.165 58.2385 27.1832L59.7099 28.1239L58.3388 29.0012C56.7366 30.0257 56.3139 32.1788 57.4082 33.734Z" fill="#FD9827" fill-opacity="1.000000" fill-rule="nonzero"/>
		<path id="Vector" d="M54.2291 28.1243C54.2291 35.219 48.4777 40.9704 41.383 40.9704C34.2883 40.9704 28.5369 35.219 28.5369 28.1243C28.5369 21.0296 34.2883 15.2782 41.383 15.2782C48.4777 15.2782 54.2291 21.0296 54.2291 28.1243Z" fill="#FFE05F" fill-opacity="1.000000" fill-rule="evenodd"/>
		<path id="Vector" d="M54.2293 28.1239C54.2293 35.2193 48.4771 40.9703 41.3829 40.9703L41.3829 15.2788C48.4771 15.2788 54.2293 21.0298 54.2293 28.1239Z" fill="#F9CB0D" fill-opacity="1.000000" fill-rule="nonzero"/>
		<path id="Vector" d="M42.5274 32.2419C42.1958 32.2419 41.8694 32.2632 41.5479 32.3006C41.5795 31.9404 41.5966 31.576 41.5966 31.2076C41.5966 24.3886 36.0687 18.8605 29.2495 18.8605C23.5703 18.8605 18.7873 22.6953 17.3468 27.9164C16.8893 27.8562 16.4229 27.8247 15.9492 27.8247C10.0886 27.8247 5.33777 32.5755 5.33777 38.4361C5.33777 44.2966 10.0886 49.0474 15.9492 49.0474L42.5274 49.0474C47.1682 49.0474 50.9302 45.2853 50.9302 40.6447C50.9302 36.0039 47.1682 32.2419 42.5274 32.2419Z" fill="#FFFFFF" fill-opacity="1.000000" fill-rule="nonzero"/>
		<path id="Vector" d="M50.9302 40.6435C50.9302 45.2846 47.1683 49.0466 42.5272 49.0466L28.134 49.0466L28.134 18.9097C28.5016 18.8759 28.8735 18.8595 29.2498 18.8595C36.0691 18.8595 41.5969 24.3873 41.5969 31.2066C41.5969 31.5753 41.5795 31.9395 41.5478 32.2996C41.8696 32.2625 42.1956 32.2406 42.5272 32.2406C47.1683 32.2406 50.9302 36.0035 50.9302 40.6435Z" fill="#DAEFEC" fill-opacity="1.000000" fill-rule="nonzero"/>
	</g>
	<path id="react weather" d="M98.2263 41L94.8511 36.1233L94.6497 36.1233L91.1279 36.1233L91.1279 41L87.0752 41L87.0752 23.5012L94.6497 23.5012Q96.9751 23.5012 98.6841 24.2764Q100.399 25.0515 101.321 26.4797Q102.249 27.9019 102.249 29.8489Q102.249 31.802 101.309 33.218Q100.375 34.6279 98.6475 35.3726L102.572 41L98.2263 41ZM98.147 29.8489Q98.147 28.3779 97.1948 27.5906Q96.2488 26.7971 94.4238 26.7971L91.1279 26.7971L91.1279 32.9006L94.4238 32.9006Q96.2488 32.9006 97.1948 32.1011Q98.147 31.3015 98.147 29.8489ZM119 37.7529L119 41L105.45 41L105.45 23.5012L118.677 23.5012L118.677 26.7483L109.472 26.7483L109.472 30.5508L117.602 30.5508L117.602 33.7002L109.472 33.7002L109.472 37.7529L119 37.7529ZM133.749 37.2524L125.625 37.2524L124.075 41L119.924 41L127.724 23.5012L131.722 23.5012L139.547 41L135.299 41L133.749 37.2524ZM132.473 34.1763L129.702 27.4746L126.925 34.1763L132.473 34.1763ZM149.499 41.2991Q146.826 41.2991 144.659 40.1394Q142.498 38.9736 141.259 36.9106Q140.027 34.8477 140.027 32.2476Q140.027 29.6475 141.259 27.5906Q142.498 25.5276 144.659 24.3679Q146.826 23.2021 149.524 23.2021Q151.8 23.2021 153.637 24.0017Q155.475 24.8013 156.726 26.3027L154.126 28.7014Q152.35 26.6506 149.725 26.6506Q148.102 26.6506 146.826 27.3647Q145.55 28.0728 144.836 29.3484Q144.122 30.624 144.122 32.2476Q144.122 33.8772 144.836 35.1528Q145.55 36.4224 146.826 37.1365Q148.102 37.8506 149.725 37.8506Q152.35 37.8506 154.126 35.7754L156.726 38.1741Q155.475 39.7 153.625 40.4995Q151.776 41.2991 149.499 41.2991ZM162.901 26.7971L157.298 26.7971L157.298 23.5012L172.55 23.5012L172.55 26.7971L166.947 26.7971L166.947 41L162.901 41L162.901 26.7971ZM208.253 23.5012L202.528 41L198.176 41L194.325 29.147L190.351 41L186.024 41L180.274 23.5012L184.474 23.5012L188.423 35.7998L192.548 23.5012L196.302 23.5012L200.3 35.8975L204.377 23.5012L208.253 23.5012ZM224.05 37.7529L224.05 41L210.5 41L210.5 23.5012L223.727 23.5012L223.727 26.7483L214.522 26.7483L214.522 30.5508L222.652 30.5508L222.652 33.7002L214.522 33.7002L214.522 37.7529L224.05 37.7529ZM238.799 37.2524L230.675 37.2524L229.125 41L224.974 41L232.774 23.5012L236.772 23.5012L244.597 41L240.349 41L238.799 37.2524ZM237.523 34.1763L234.752 27.4746L231.975 34.1763L237.523 34.1763ZM249.176 26.7971L243.573 26.7971L243.573 23.5012L258.825 23.5012L258.825 26.7971L253.222 26.7971L253.222 41L249.176 41L249.176 26.7971ZM277.052 23.5012L277.052 41L273 41L273 33.8223L265.053 33.8223L265.053 41L261 41L261 23.5012L265.053 23.5012L265.053 30.3982L273 30.3982L273 23.5012L277.052 23.5012ZM294.75 37.7529L294.75 41L281.2 41L281.2 23.5012L294.427 23.5012L294.427 26.7483L285.222 26.7483L285.222 30.5508L293.352 30.5508L293.352 33.7002L285.222 33.7002L285.222 37.7529L294.75 37.7529ZM309.126 41L305.751 36.1233L305.55 36.1233L302.028 36.1233L302.028 41L297.975 41L297.975 23.5012L305.55 23.5012Q307.875 23.5012 309.584 24.2764Q311.299 25.0515 312.221 26.4797Q313.148 27.9019 313.148 29.8489Q313.148 31.802 312.209 33.218Q311.275 34.6279 309.547 35.3726L313.472 41L309.126 41ZM309.047 29.8489Q309.047 28.3779 308.095 27.5906Q307.149 26.7971 305.324 26.7971L302.028 26.7971L302.028 32.9006L305.324 32.9006Q307.149 32.9006 308.095 32.1011Q309.047 31.3015 309.047 29.8489Z" fill="#4793FF" fill-opacity="1.000000" fill-rule="evenodd"/>
</svg>
