<svg width="56.000000" height="56.000000" viewBox="0 0 56 56" fill="none" xmlns="http://www.w3.org/2000/svg" xmlns:xlink="http://www.w3.org/1999/xlink">
	<desc>
			Created with Pixso.
	</desc>
	<defs>
		<filter id="filter_2_117_dd" x="0.000000" y="0.000000" width="56.000000" height="56.000000" filterUnits="userSpaceOnUse" color-interpolation-filters="sRGB">
			<feFlood flood-opacity="0" result="BackgroundImageFix"/>
			<feColorMatrix in="SourceAlpha" type="matrix" values="0 0 0 0 0 0 0 0 0 0 0 0 0 0 0 0 0 0 127 0" result="hardAlpha"/>
			<feMorphology radius="-1" in="" result="BackgroundImageFix"/>
			<feOffset dx="1" dy="4"/>
			<feGaussianBlur stdDeviation="3.33333"/>
			<feComposite in2="hardAlpha" operator="out" k2="-1" k3="1"/>
			<feColorMatrix type="matrix" values="0 0 0 0 0.27843 0 0 0 0 0.57647 0 0 0 0 1 0 0 0 0.2 0"/>
			<feBlend mode="normal" in2="BackgroundImageFix" result="effect_dropShadow_1"/>
			<feBlend mode="normal" in="SourceGraphic" in2="effect_dropShadow_1" result="shape"/>
		</filter>
		<clipPath id="clip2_133">
			<rect id="temp" width="25.000000" height="25.000000" transform="translate(15.000000 12.000000)" fill="white" fill-opacity="0"/>
		</clipPath>
	</defs>
	<g filter="url(#filter_2_117_dd)">
		<circle id="Ellipse 1" cx="27.000000" cy="24.000000" r="19.000000" fill="#FFFFFF" fill-opacity="1.000000"/>
	</g>
	<rect id="temp" width="25.000000" height="25.000000" transform="translate(15.000000 12.000000)" fill="#FFFFFF" fill-opacity="0"/>
	<g clip-path="url(#clip2_133)">
		<path id="Vector" d="M30.4056 14.9816L34.1056 14.9816C34.308 14.9816 34.4719 14.8176 34.4719 14.6153C34.4719 14.4131 34.308 14.2491 34.1056 14.2491L30.4056 14.2491C30.2033 14.2491 30.0394 14.4131 30.0394 14.6153C30.0394 14.8176 30.2033 14.9816 30.4056 14.9816Z" fill="#4F667A" fill-opacity="1.000000" fill-rule="nonzero"/>
		<path id="Vector" d="M30.4056 16.6725L32.2556 16.6725C32.4579 16.6725 32.6218 16.5085 32.6218 16.3063C32.6218 16.104 32.4579 15.94 32.2556 15.94L30.4056 15.94C30.2033 15.94 30.0394 16.104 30.0394 16.3063C30.0394 16.5085 30.2033 16.6725 30.4056 16.6725Z" fill="#4F667A" fill-opacity="1.000000" fill-rule="nonzero"/>
		<path id="Vector" d="M34.1064 17.6491L30.4063 17.6491C30.204 17.6491 30.0401 17.8131 30.0401 18.0153C30.0401 18.2176 30.204 18.3815 30.4063 18.3815L34.1064 18.3815C34.3087 18.3815 34.4726 18.2176 34.4726 18.0153C34.4726 17.8131 34.3086 17.6491 34.1064 17.6491Z" fill="#4F667A" fill-opacity="1.000000" fill-rule="nonzero"/>
		<path id="Vector" d="M30.4056 20.0725L32.2556 20.0725C32.4579 20.0725 32.6218 19.9085 32.6218 19.7063C32.6218 19.504 32.4579 19.34 32.2556 19.34L30.4056 19.34C30.2033 19.34 30.0394 19.504 30.0394 19.7063C30.0394 19.9085 30.2033 20.0725 30.4056 20.0725Z" fill="#4F667A" fill-opacity="1.000000" fill-rule="nonzero"/>
		<path id="Vector" d="M34.1064 21.0239L30.4063 21.0239C30.204 21.0239 30.0401 21.1879 30.0401 21.3902C30.0401 21.5924 30.204 21.7564 30.4063 21.7564L34.1064 21.7564C34.3087 21.7564 34.4726 21.5924 34.4726 21.3902C34.4726 21.1879 34.3086 21.0239 34.1064 21.0239Z" fill="#4F667A" fill-opacity="1.000000" fill-rule="nonzero"/>
		<path id="Vector" d="M30.4056 23.4473L32.2556 23.4473C32.4579 23.4473 32.6218 23.2834 32.6218 23.0811C32.6218 22.8788 32.4579 22.7149 32.2556 22.7149L30.4056 22.7149C30.2033 22.7149 30.0394 22.8788 30.0394 23.0811C30.0394 23.2834 30.2033 23.4473 30.4056 23.4473Z" fill="#4F667A" fill-opacity="1.000000" fill-rule="nonzero"/>
		<path id="Vector" d="M34.1064 24.4306L30.4063 24.4306C30.204 24.4306 30.0401 24.5946 30.0401 24.7968C30.0401 24.9991 30.204 25.1631 30.4063 25.1631L34.1064 25.1631C34.3087 25.1631 34.4726 24.9991 34.4726 24.7968C34.4726 24.5946 34.3086 24.4306 34.1064 24.4306Z" fill="#4F667A" fill-opacity="1.000000" fill-rule="nonzero"/>
		<path id="Vector" d="M32.2556 26.1215L30.4056 26.1215C30.2033 26.1215 30.0394 26.2855 30.0394 26.4878C30.0394 26.69 30.2033 26.854 30.4056 26.854L32.2556 26.854C32.4579 26.854 32.6218 26.69 32.6218 26.4878C32.6218 26.2855 32.4579 26.1215 32.2556 26.1215Z" fill="#4F667A" fill-opacity="1.000000" fill-rule="nonzero"/>
		<path id="Vector" d="M30.9548 31.7869C30.9548 33.1932 30.403 34.5111 29.402 35.499C28.4185 36.4687 27.1216 37 25.7422 37C25.7173 37 25.6924 37 25.6675 36.9995C25.4467 36.9961 25.2285 36.9795 25.0126 36.9487C23.9101 36.7935 22.8856 36.2876 22.0775 35.4872C21.1116 34.5312 20.5618 33.2616 20.5296 31.9134C20.4861 30.0862 21.4026 28.3737 22.934 27.3937L22.934 14.8077C22.934 13.5128 23.8148 12.4199 25.0092 12.0972C25.2426 12.0337 25.4883 12 25.7417 12C27.2896 12 28.5494 13.2593 28.5494 14.8077L28.5494 27.3937C30.0382 28.3478 30.9548 30.0114 30.9548 31.7869Z" fill="#E9F5FF" fill-opacity="1.000000" fill-rule="nonzero"/>
		<path id="Vector" d="M30.9548 31.7869C30.9548 33.1932 30.403 34.5111 29.402 35.499C28.4186 36.4687 27.1216 37 25.7422 37C24.8296 37 24.2773 37 24.2773 37C24.5253 37 24.771 36.9829 25.0127 36.9487C26.1133 36.7944 27.1309 36.2944 27.9371 35.499C28.9386 34.5111 29.4899 33.1932 29.4899 31.7869C29.4899 30.0114 28.5733 29.8215 27.0845 28.8674L27.0845 14.8077C27.0845 13.5128 26.2031 12.4199 25.0092 12.0972C25.2427 12.0337 25.4883 12 25.7417 12C27.2896 12 28.5494 13.2593 28.5494 14.8077L28.5494 27.3937C30.0382 28.3478 30.9548 30.0114 30.9548 31.7869Z" fill="#CDEAF7" fill-opacity="1.000000" fill-rule="nonzero"/>
		<path id="Vector" d="M29.4899 31.7942C29.4899 32.805 29.0934 33.7528 28.3731 34.4628C27.6665 35.1601 26.7319 35.5424 25.7383 35.5424C25.7212 35.5424 25.7046 35.5424 25.688 35.5419C25.5004 35.5395 25.3149 35.5224 25.1323 35.4926C24.373 35.3671 23.6688 35.0087 23.1083 34.4535C22.4129 33.7655 22.0169 32.8533 21.994 31.886C21.9617 30.5202 22.6747 29.2438 23.8544 28.5544C24.1898 28.3585 24.3988 27.9948 24.3988 27.6061L24.3988 14.815C24.3988 14.2945 24.6967 13.8419 25.1313 13.6192C25.3144 13.5249 25.5219 13.4722 25.7417 13.4722C26.4819 13.4722 27.084 14.0748 27.084 14.815L27.084 27.6061C27.084 27.9948 27.293 28.3585 27.6285 28.5544C28.7764 29.2253 29.4899 30.4665 29.4899 31.7942Z" fill="#FF6E6E" fill-opacity="1.000000" fill-rule="nonzero"/>
		<path id="Vector" d="M29.4899 31.7942C29.4899 32.805 29.0934 33.7528 28.3732 34.4628C27.6666 35.1601 26.732 35.5424 25.7383 35.5424C25.7212 35.5424 25.7046 35.5424 25.688 35.5419C25.5005 35.5395 25.3149 35.5224 25.1323 35.4926C25.8926 35.3686 26.5938 35.0141 27.1524 34.4628C27.8727 33.7528 28.2692 32.805 28.2692 31.7942C28.2692 30.4665 27.5558 29.2253 26.4078 28.5544C26.0723 28.3585 25.8633 27.9948 25.8633 27.6061L25.8633 14.815C25.8633 14.2945 25.5654 13.8423 25.1313 13.6192C25.3145 13.5249 25.522 13.4722 25.7417 13.4722C26.482 13.4722 27.0841 14.0748 27.0841 14.815L27.0841 27.6061C27.0841 27.9948 27.2931 28.3585 27.6285 28.5544C28.7765 29.2253 29.4899 30.4665 29.4899 31.7942Z" fill="#F44E92" fill-opacity="1.000000" fill-rule="nonzero"/>
		<path id="Vector" d="M27.084 14.815L27.084 18.0154L24.3989 18.0154L24.3989 14.815C24.3989 14.2945 24.6967 13.8419 25.1313 13.6192C25.3144 13.5249 25.522 13.4722 25.7417 13.4722C26.482 13.4722 27.084 14.0748 27.084 14.815Z" fill="#4F667A" fill-opacity="1.000000" fill-rule="nonzero"/>
		<path id="Vector" d="M27.0841 14.815L27.0841 18.0154L25.8633 18.0154L25.8633 14.815C25.8633 14.2945 25.5654 13.8423 25.1313 13.6192C25.3145 13.5249 25.522 13.4722 25.7417 13.4722C26.482 13.4722 27.0841 14.0748 27.0841 14.815Z" fill="#3A5366" fill-opacity="1.000000" fill-rule="nonzero"/>
	</g>
</svg>
